<?xml version="1.0" standalone="no"?>
<!DOCTYPE svg PUBLIC "-//W3C//DTD SVG 20010904//EN"
 "http://www.w3.org/TR/2001/REC-SVG-20010904/DTD/svg10.dtd">
<svg version="1.0" xmlns="http://www.w3.org/2000/svg"
 width="1920.000000pt" height="1920.000000pt" viewBox="0 0 1920.000000 1920.000000"
 preserveAspectRatio="xMidYMid meet">
<metadata>
Created by potrace 1.11, written by Peter Selinger 2001-2013
</metadata>
<g transform="translate(0.000000,1920.000000) scale(0.100000,-0.100000)"
fill="#000000" stroke="none">
<path d="M9150 18272 c0 -35 23 -496 35 -712 10 -173 24 -463 31 -620 4 -85 8
-156 9 -158 1 -1 164 -5 361 -7 197 -3 414 -7 481 -10 l122 -4 5 32 c3 18 7
60 10 94 5 53 3 62 -12 67 -9 2 -161 7 -337 10 -176 4 -346 9 -377 12 l-56 6
-4 71 c-2 40 -5 156 -6 258 l-3 186 299 -5 299 -5 7 93 c4 51 6 94 4 95 -2 2
-140 5 -307 6 -206 2 -304 6 -307 13 -2 6 -5 105 -6 220 l-3 209 255 -6 c140
-4 346 -10 456 -14 l202 -6 7 92 c4 51 6 94 4 96 -2 2 -220 6 -484 9 -264 4
-526 9 -582 12 l-103 5 0 -39z"/>
<path d="M10615 18248 c-2 -7 -25 -191 -50 -408 -61 -521 -101 -862 -116 -987
-7 -57 -10 -105 -7 -109 3 -3 47 -11 97 -18 l91 -12 5 30 c3 17 9 58 15 91 5
33 23 154 40 269 17 115 32 212 35 216 7 11 259 -34 283 -51 72 -51 151 -206
238 -469 36 -107 68 -201 72 -209 6 -11 192 -70 225 -71 11 0 4 32 -39 185
-79 280 -163 481 -228 546 l-24 24 112 0 c106 0 115 2 178 33 78 38 126 89
168 178 54 113 74 257 50 362 -16 67 -72 147 -132 186 -103 69 -155 82 -571
151 -215 36 -402 67 -415 70 -13 3 -24 0 -27 -7z m345 -232 c417 -72 467 -86
507 -142 52 -74 55 -199 7 -304 -45 -99 -101 -140 -191 -140 -35 0 -515 76
-530 84 -2 1 62 438 72 494 5 27 9 31 28 27 12 -3 60 -11 107 -19z"/>
<path d="M7940 18158 c-52 -11 -96 -21 -98 -23 -3 -3 -4 3 103 -510 162 -775
206 -979 208 -981 1 -2 197 25 436 59 l433 61 -7 96 c-4 52 -8 96 -10 98 -1 2
-157 -18 -345 -43 -189 -25 -345 -44 -346 -42 -2 2 -30 154 -63 338 -106 593
-171 958 -171 963 0 10 -42 5 -140 -16z"/>
<path d="M6843 17869 l-181 -60 -7 -102 c-14 -217 -11 -761 6 -1037 13 -220
36 -481 43 -488 2 -1 44 14 95 35 75 30 91 41 91 59 0 11 -7 88 -15 170 -8 82
-15 174 -17 204 l-3 54 317 108 317 107 74 -102 c40 -56 98 -137 127 -181 30
-43 59 -80 66 -83 11 -4 203 42 211 51 4 4 -65 105 -192 281 -39 55 -143 201
-230 325 -87 124 -202 286 -255 360 -53 74 -132 186 -176 247 -43 62 -81 113
-84 113 -3 0 -87 -27 -187 -61z m183 -306 c54 -76 152 -209 217 -296 65 -88
121 -165 123 -171 3 -9 -74 -40 -248 -100 -139 -47 -259 -86 -267 -86 -12 0
-13 48 -8 318 8 399 13 451 41 462 12 5 26 9 33 9 6 1 55 -61 109 -136z"/>
<path d="M12197 17803 c-20 -59 -113 -353 -207 -653 -94 -300 -182 -578 -196
-619 -13 -41 -22 -76 -20 -78 6 -7 180 -63 183 -59 2 2 83 230 179 507 284
813 325 932 322 934 -2 1 -48 17 -103 35 -55 18 -105 35 -112 37 -7 3 -25 -37
-46 -104z"/>
<path d="M13054 17338 c-222 -218 -463 -476 -673 -722 -188 -220 -237 -285
-225 -295 20 -18 176 -73 183 -65 4 5 39 47 77 94 142 177 196 240 204 240 9
0 600 -287 600 -292 0 -2 -18 -103 -39 -225 l-38 -223 96 -54 c83 -47 97 -53
103 -38 4 9 64 361 133 782 69 421 128 773 131 782 4 14 -31 35 -175 108 -100
49 -183 90 -186 90 -2 0 -88 -82 -191 -182z m306 -91 c1 -6 -23 -177 -51 -378
l-52 -367 -61 28 c-34 15 -148 70 -254 121 l-192 94 97 104 c54 58 179 180
277 272 l180 168 28 -15 c15 -8 28 -20 28 -27z"/>
<path d="M5770 17434 c-263 -78 -476 -197 -630 -353 -47 -47 -98 -109 -113
-137 -121 -229 -47 -487 245 -856 104 -131 211 -227 309 -276 208 -105 355
-77 701 133 51 31 127 82 168 113 41 32 79 60 84 64 10 7 -1 33 -188 433 -24
50 -67 143 -97 208 -29 64 -58 117 -63 117 -7 0 -515 -256 -524 -264 -1 -2 19
-40 44 -85 l46 -81 32 18 c17 11 88 49 158 86 l127 67 103 -203 c57 -112 104
-208 106 -213 6 -21 -156 -126 -294 -192 -72 -34 -86 -38 -164 -38 -75 0 -91
3 -136 28 -95 53 -181 148 -297 328 -74 115 -130 229 -157 318 -28 92 -24 171
13 234 50 85 169 179 327 257 83 42 275 110 308 110 26 0 26 -1 10 118 -7 50
-17 92 -23 91 -5 0 -48 -11 -95 -25z"/>
<path d="M7097 15199 c-94 -22 -165 -80 -206 -169 l-26 -55 -3 -858 c-2 -819
-2 -858 15 -853 159 49 418 97 627 117 259 24 664 0 924 -56 619 -131 1170
-421 1604 -843 l96 -94 84 55 c270 178 571 290 887 332 141 19 383 19 523 -1
197 -27 457 -103 601 -176 l37 -19 -2 1198 -3 1198 -26 55 c-33 70 -79 116
-149 149 l-55 26 -2445 2 c-1404 0 -2461 -3 -2483 -8z m3253 -938 c178 -62
317 -201 381 -381 20 -55 24 -85 24 -190 0 -105 -4 -135 -24 -190 -64 -180
-201 -317 -381 -381 -55 -20 -85 -24 -190 -24 -105 0 -135 4 -190 24 -180 64
-319 203 -381 381 -31 89 -37 241 -14 330 56 216 212 378 429 442 87 25 256
20 346 -11z"/>
<path d="M7571 12780 c-193 -16 -371 -51 -574 -112 l-138 -41 3 -701 3 -701
26 -55 c33 -70 79 -116 149 -149 l55 -26 1602 -3 1602 -2 -24 64 c-349 927
-1190 1589 -2175 1711 -158 19 -396 26 -529 15z"/>
<path d="M11215 12179 c-102 -10 -213 -33 -312 -65 -88 -28 -323 -141 -367
-177 l-28 -23 65 -106 c127 -204 245 -461 323 -701 l39 -118 545 3 545 3 55
26 c70 33 116 79 149 149 l26 55 3 326 3 327 -83 55 c-209 138 -444 223 -687
247 -114 11 -158 11 -276 -1z"/>
<path d="M6463 10979 c-311 -52 -540 -360 -494 -665 45 -303 290 -518 591
-518 269 0 497 174 576 439 24 81 24 229 0 310 -40 136 -122 253 -229 329
-133 93 -291 131 -444 105z"/>
<path d="M12463 10979 c-255 -42 -455 -251 -494 -514 -30 -200 65 -424 233
-550 337 -253 812 -90 934 320 24 81 24 229 0 310 -40 136 -122 253 -229 329
-133 93 -291 131 -444 105z"/>
<path d="M6195 9175 c-27 -8 -53 -14 -56 -15 -3 0 -48 -27 -100 -61 -255 -164
-572 -291 -1248 -499 -91 -27 -183 -61 -207 -75 -127 -75 -177 -243 -111 -378
34 -67 101 -130 164 -151 87 -30 142 -22 379 53 335 107 587 194 774 270 l170
68 2 -1591 3 -1591 26 -55 c33 -70 79 -116 149 -149 l55 -26 365 0 365 0 55
26 c70 33 116 79 149 149 l26 55 3 1578 c1 867 4 1577 6 1577 2 0 60 -27 128
-60 487 -233 1124 -403 1778 -476 196 -22 742 -25 930 -6 674 70 1328 243
1828 482 68 33 126 60 128 60 2 0 5 -710 6 -1577 l3 -1578 26 -55 c33 -70 79
-116 149 -149 l55 -26 365 0 365 0 55 26 c70 33 116 79 149 149 l26 55 3 1591
2 1591 170 -68 c187 -76 439 -163 774 -270 237 -75 292 -83 379 -53 25 8 66
33 91 55 150 132 130 375 -39 474 -23 14 -150 59 -281 100 -623 193 -925 314
-1160 466 -151 98 -128 94 -534 94 -411 0 -388 4 -552 -108 -500 -345 -1235
-583 -2063 -668 -66 -7 -239 -13 -385 -13 -146 0 -319 6 -385 13 -828 85
-1565 324 -2065 669 -159 110 -142 106 -530 109 -264 2 -346 -1 -385 -12z"/>
<path d="M15249 4802 c-46 -48 -179 -186 -294 -307 -115 -121 -251 -263 -302
-316 l-93 -95 62 -72 62 -73 292 292 c286 286 293 292 299 263 4 -16 11 -42
15 -59 72 -254 159 -895 186 -1370 7 -117 20 -165 47 -165 6 0 33 24 60 53 27
28 115 120 195 202 80 83 211 218 291 300 80 83 207 214 284 292 76 78 137
148 135 155 -3 7 -34 36 -70 65 l-66 52 -114 -122 c-63 -67 -145 -156 -183
-197 -38 -41 -95 -102 -126 -135 -31 -33 -96 -104 -144 -157 -49 -54 -91 -98
-95 -98 -4 0 -10 39 -14 88 -26 320 -120 832 -220 1197 -8 28 -24 85 -35 129
-29 105 -45 142 -69 155 -17 9 -30 -2 -103 -77z"/>
<path d="M3794 4807 c-39 -34 -127 -109 -195 -167 -68 -58 -218 -186 -334
-285 -115 -98 -266 -226 -334 -284 -69 -59 -145 -124 -169 -147 l-45 -41 68
-81 c38 -45 73 -82 79 -82 6 1 30 18 52 38 48 43 442 385 707 614 100 86 183
155 185 153 2 -2 -26 -108 -62 -237 -78 -278 -178 -661 -251 -962 l-54 -219
71 -66 c111 -103 143 -131 149 -131 3 0 50 51 105 112 54 62 144 162 199 223
55 61 170 189 255 285 85 96 162 181 170 190 8 9 69 76 135 150 66 74 128 144
138 155 18 19 16 21 -55 87 -40 37 -76 67 -79 68 -5 0 -32 -27 -244 -250 -69
-73 -389 -413 -420 -446 -55 -60 -148 -154 -151 -151 -8 8 204 807 315 1187
33 110 37 138 27 150 -93 113 -172 200 -180 200 -6 0 -43 -29 -82 -63z"/>
<path d="M13983 3613 c-65 -47 -126 -93 -135 -102 -20 -18 -29 43 102 -636 62
-324 191 -959 196 -967 3 -5 173 85 201 107 2 0 -6 46 -17 101 -10 54 -24 160
-30 234 -11 126 -11 135 7 148 45 34 543 392 560 402 16 10 50 -3 225 -89 114
-55 210 -101 213 -101 9 0 185 151 185 159 0 3 -85 50 -188 103 -226 118 -468
256 -726 413 -26 17 -144 94 -262 172 l-214 142 -117 -86z m246 -262 c170
-122 358 -248 428 -287 29 -16 51 -33 50 -39 -2 -5 -109 -85 -238 -176 l-234
-166 -12 28 c-22 50 -183 663 -183 696 0 22 18 43 38 43 7 0 76 -45 151 -99z"/>
<path d="M4970 3653 c-77 -13 -182 -62 -263 -122 -158 -117 -360 -360 -447
-536 -113 -229 -103 -395 35 -580 49 -66 142 -155 242 -233 58 -45 236 -137
324 -168 107 -38 250 -44 338 -15 156 53 295 193 431 433 74 130 133 264 162
367 31 108 30 253 -2 336 -49 128 -137 223 -324 349 -206 140 -360 192 -496
169z m184 -223 c79 -25 279 -154 354 -230 61 -61 84 -108 90 -180 7 -102 -43
-240 -163 -445 -143 -245 -262 -360 -391 -381 -158 -24 -514 196 -600 372 -56
115 -14 263 131 465 177 246 322 384 428 409 53 13 82 11 151 -10z"/>
<path d="M6110 3029 c0 -12 -113 -678 -160 -944 -71 -403 -101 -587 -98 -601
2 -9 62 -41 142 -76 l139 -62 21 26 c12 14 75 90 141 169 207 247 364 452 495
649 85 127 84 126 76 50 -35 -344 -89 -872 -101 -984 -8 -77 -13 -141 -11
-143 4 -4 288 -93 297 -93 8 0 203 282 314 455 80 124 180 287 280 455 51 86
179 319 213 386 l31 62 -87 21 c-48 12 -94 24 -104 27 -12 4 -30 -21 -74 -103
-109 -205 -250 -441 -380 -640 -90 -136 -235 -342 -245 -349 -11 -6 -11 5 1
126 7 80 40 494 79 1025 5 66 8 122 6 126 -3 3 -43 21 -91 39 -85 33 -87 34
-101 15 -8 -11 -53 -76 -100 -145 -164 -239 -494 -664 -648 -835 l-36 -40 6
35 c75 426 195 1191 195 1242 0 19 -18 32 -93 71 -98 50 -107 53 -107 36z"/>
<path d="M13035 3007 c-27 -7 -90 -32 -140 -54 -49 -23 -112 -51 -140 -63 -85
-37 -107 -47 -195 -87 -47 -22 -127 -57 -177 -78 -51 -22 -93 -45 -93 -51 0
-5 11 -39 26 -75 25 -64 118 -306 254 -659 39 -102 82 -212 95 -245 13 -33 44
-114 70 -180 25 -66 58 -150 72 -187 14 -38 31 -68 37 -68 6 0 57 19 114 43
88 36 102 45 99 62 -3 11 -55 138 -116 283 -61 144 -111 265 -111 268 0 3 21
14 48 26 84 37 136 60 172 76 99 47 286 -11 681 -208 l139 -70 115 66 c63 36
115 69 115 73 0 13 -353 189 -480 239 -131 51 -199 71 -262 75 -21 1 -38 4
-38 7 1 3 25 22 55 42 224 156 226 415 5 652 -97 103 -222 144 -345 113z m92
-228 c112 -54 214 -249 184 -351 -26 -84 -64 -110 -361 -245 -166 -76 -191
-86 -199 -77 -9 11 -202 476 -199 479 10 8 447 204 463 208 41 10 70 6 112
-14z"/>
<path d="M11700 2500 c-173 -49 -367 -103 -430 -121 -63 -17 -132 -36 -153
-42 -32 -9 -37 -14 -33 -31 3 -12 73 -347 157 -746 83 -399 152 -726 153 -727
1 -2 85 20 187 48 101 28 198 55 214 59 59 15 621 171 687 191 l66 19 -30 91
c-24 72 -33 89 -47 85 -137 -43 -876 -255 -878 -252 -4 4 -48 184 -78 316 -8
36 -21 91 -29 123 -7 31 -10 59 -6 62 6 4 410 116 475 132 51 12 115 35 115
41 0 3 -11 44 -25 90 -21 67 -29 82 -43 78 -9 -3 -100 -28 -202 -56 -102 -27
-225 -61 -274 -75 -48 -14 -92 -23 -96 -20 -4 3 -11 22 -15 42 -3 21 -24 111
-46 201 -21 89 -39 166 -39 171 0 5 28 16 63 25 34 10 89 26 122 36 33 10 103
30 155 45 52 15 122 35 155 45 33 10 110 33 170 51 61 17 111 33 112 34 2 1
-10 39 -25 86 -22 64 -33 84 -48 86 -10 1 -161 -39 -334 -87z"/>
<path d="M8086 2313 c-3 -10 -53 -250 -111 -533 -139 -675 -163 -792 -180
-870 -8 -36 -11 -68 -7 -72 4 -4 176 -30 382 -58 206 -28 471 -64 589 -80 118
-17 216 -29 217 -27 1 1 5 43 9 93 l7 91 -33 6 c-19 4 -146 20 -284 37 -137
16 -329 40 -425 51 -96 12 -178 24 -182 28 -6 5 64 440 78 489 5 18 31 16 339
-28 153 -21 280 -38 281 -37 3 3 23 182 20 184 -1 1 -134 20 -296 43 -162 23
-297 43 -301 45 -3 3 7 78 23 167 15 90 31 184 35 211 5 43 8 47 32 47 14 0
188 -20 386 -45 198 -25 370 -45 381 -45 20 0 22 7 27 93 3 50 4 93 3 93 -2 2
-962 134 -974 134 -6 0 -13 -8 -16 -17z"/>
<path d="M10675 2270 c-99 -10 -211 -21 -250 -25 -38 -3 -140 -12 -225 -20
-85 -9 -184 -18 -220 -21 -36 -3 -105 -10 -155 -15 -49 -5 -96 -9 -102 -9 -10
0 -13 -26 -13 -96 l0 -97 143 7 c78 3 192 9 253 12 l111 6 12 -168 c7 -93 14
-194 16 -224 12 -145 25 -313 30 -390 3 -47 10 -137 15 -200 5 -63 12 -164 16
-225 3 -60 10 -114 15 -119 7 -8 237 8 246 18 3 3 -7 116 -22 253 -15 136 -33
309 -41 383 -19 181 -24 229 -29 270 -6 47 -12 104 -25 230 -6 58 -13 124 -16
147 -6 49 -40 39 270 83 115 16 210 31 212 33 2 1 -4 44 -13 95 -13 71 -20 92
-32 91 -9 -1 -97 -9 -196 -19z"/>
</g>
</svg>
